# xmcd
#
# Track frame offsets:
#	150
#	20240
#	41600
#	75944
#	84997
#	107968
#	130790
#	148500
#	165046
#	188190
#	211886
#	233231
#	251305
#
# Disc length: 3416 seconds
#
# Revision: 0
# Processed by: cddbd v1.5.1PL0 Copyright (c) Steve Scherf et al.
# Submitted via: EasyCDDAExtractor 8.2.1.1
#
DISCID=9c0d560d
DTITLE=Lucio Battisti - Inediti Vol. 3
DYEAR=1970
DGENRE=Pop
TTITLE0=Lady
TTITLE1=Since I have forgotten about you
TTITLE2=Our dear angel
TTITLE3=The freedom song (take 1)
TTITLE4=The freedom song (take 2)
TTITLE5=The freedom song (take 3)
TTITLE6=To love a bit (take 1)
TTITLE7=To love a bit (take 2)
TTITLE8=Sin fundir
TTITLE9=Me chanson de liberté
TTITLE10=Les jardins de septembre
TTITLE11=Toujour plus belle
TTITLE12=Strumentale
EXTD=
EXTT0=
EXTT1=
EXTT2=
EXTT3=
EXTT4=
EXTT5=
EXTT6=
EXTT7=
EXTT8=
EXTT9=
EXTT10=
EXTT11=
EXTT12=
PLAYORDER=
